<?xml version="1.0" encoding="utf-8"?>
<!-- Generator: Adobe Illustrator 20.0.0, SVG Export Plug-In . SVG Version: 6.00 Build 0)  -->
<svg version="1.1" id="Calque_1" xmlns="http://www.w3.org/2000/svg" xmlns:xlink="http://www.w3.org/1999/xlink" x="0px" y="0px"
	 viewBox="0 0 332 102" style="enable-background:new 0 0 332 102;" xml:space="preserve">
<style type="text/css">
	.st0{fill:#66B32E;}
	.st1{fill:#0C9C3A;}
	.st2{fill:#C2C3C3;}
	.st3{fill:#020203;stroke:#020203;stroke-width:0.1;stroke-miterlimit:10;}
	.st4{fill:#020203;}
</style>
<g id="CMJN">
	<path class="st0" d="M60.6,40.4c6.9,9.4,14.7,22.9,14.7,22.9s-15.4,1.9-23.7-12c-2.2-3.8-11.4-20.8-11.4-20.8S52.4,29.1,60.6,40.4z
		"/>
	<circle class="st1" cx="40.9" cy="55.1" r="8.4"/>
	<path class="st2" d="M25.4,44.7c0-7.3,2.7-13.9,7.1-18.9c-6,5.3-9.8,13-9.8,21.6c0,15.8,12.8,28.7,28.7,28.7
		c8.6,0,16.3-3.8,21.6-9.8c-5.1,4.4-11.7,7.1-18.9,7.1C38.3,73.4,25.4,60.6,25.4,44.7z"/>
	<g id="LABO_1_">
		<path class="st3" d="M171.4,81.1h3.6v0.6h-4.5v-5.2h1v4.6H171.4z"/>
		<path class="st3" d="M182.8,80.2l-0.7,1.5h-1l2.7-5.2h1.1l2.6,5.2h-1l-0.7-1.5H182.8z M185.3,79.6l-1-2.3l0,0l-1.1,2.3H185.3z"/>
		<path class="st3" d="M193.9,76.5h3.1c1.3,0,2,0.6,2,1.3c0,0.3-0.2,0.8-0.9,1.1c0.5,0.1,1.3,0.4,1.3,1.3c0,0.8-0.8,1.5-2.4,1.5h-3
			v-5.2C194,76.5,193.9,76.5,193.9,76.5z M194.9,78.8h1.7c0.9,0,1.5-0.2,1.5-0.8c0-0.5-0.4-0.8-1.5-0.8h-1.7V78.8z M194.9,81.2h2
			c1,0,1.5-0.4,1.5-1c0-0.7-0.9-0.9-1.7-0.9h-1.9L194.9,81.2L194.9,81.2z"/>
		<path class="st3" d="M209.3,81.9c-2.6,0-3.4-1.6-3.4-2.7s0.8-2.8,3.4-2.8c2.6,0,3.4,1.6,3.4,2.8C212.8,80.3,212,81.9,209.3,81.9z
			 M209.3,77c-1.5,0-2.5,0.9-2.5,2.1s0.9,2.1,2.5,2.1c1.5,0,2.5-0.9,2.5-2.1S210.9,77,209.3,77z"/>
		<path class="st3" d="M220.7,81.8h-1v-5.2h3.3c1.2,0,2.3,0.3,2.3,1.4c0,0.8-0.5,1.1-1,1.3c0.4,0.1,0.8,0.3,0.8,1l0.1,0.9
			c0,0.3,0.1,0.4,0.4,0.5v0.1h-1.2c-0.1-0.3-0.2-1.1-0.2-1.3c0-0.4-0.1-0.9-1.3-0.9h-2.3L220.7,81.8L220.7,81.8z M220.7,78.9h2.2
			c0.7,0,1.4-0.1,1.4-0.9s-0.8-0.9-1.3-0.9h-2.4v1.8H220.7z"/>
		<path class="st3" d="M233.5,80.2l-0.7,1.5h-1l2.7-5.2h1.1l2.6,5.2h-1l-0.7-1.5H233.5z M236,79.6l-1-2.3l0,0l-1.1,2.3H236z"/>
		<path class="st3" d="M242.9,76.5h5.7v0.6h-2.4v4.6h-1v-4.6h-2.4L242.9,76.5L242.9,76.5z"/>
		<path class="st3" d="M257.8,81.9c-2.6,0-3.4-1.6-3.4-2.7s0.8-2.8,3.4-2.8s3.4,1.6,3.4,2.8C261.3,80.3,260.5,81.9,257.8,81.9z
			 M257.8,77c-1.5,0-2.5,0.9-2.5,2.1s0.9,2.1,2.5,2.1c1.5,0,2.5-0.9,2.5-2.1S259.4,77,257.8,77z"/>
		<path class="st3" d="M269.2,81.8h-1v-5.2h1V81.8z"/>
		<path class="st3" d="M277.6,81.8h-1v-5.2h3.3c1.2,0,2.3,0.3,2.3,1.4c0,0.8-0.5,1.1-1,1.3c0.4,0.1,0.8,0.3,0.8,1l0.1,0.9
			c0,0.3,0.1,0.4,0.4,0.5v0.1h-1.2c-0.1-0.3-0.2-1.1-0.2-1.3c0-0.4-0.1-0.9-1.3-0.9h-2.3v2.2H277.6z M277.6,78.9h2.2
			c0.7,0,1.4-0.1,1.4-0.9s-0.8-0.9-1.3-0.9h-2.4L277.6,78.9L277.6,78.9z"/>
		<path class="st3" d="M294.6,81.8h-5.2v-5.2h5.2v0.6h-4.2v1.6h3.9v0.6h-3.9v1.7h4.3L294.6,81.8L294.6,81.8z"/>
		<path class="st3" d="M305.5,78.1c0-0.8-1-1.1-1.8-1.1c-0.6,0-1.6,0.1-1.6,0.9c0,0.4,0.4,0.6,0.8,0.7l2,0.3
			c0.9,0.2,1.6,0.6,1.6,1.4c0,1.2-1.6,1.6-2.8,1.6c-1.3,0-1.8-0.3-2.1-0.5c-0.6-0.4-0.7-0.8-0.7-1.3h0.9c0,0.9,1,1.2,2,1.2
			c0.7,0,1.9-0.1,1.9-0.9c0-0.5-0.3-0.7-1.5-0.9l-1.4-0.2c-0.5-0.1-1.5-0.3-1.5-1.2c0-0.8,0.7-1.6,2.4-1.6c2.5,0,2.7,1.1,2.8,1.7
			L305.5,78.1L305.5,78.1z"/>
	</g>
	<g id="ARKO_1_">
		<polygon class="st4" points="147,42.8 141.6,42.8 134,53.9 141.6,66.8 147.2,66.8 139.5,53.5 		"/>
		<path class="st4" d="M95,36.6L84,66.8h4.8l2.4-7.2h11.9l2.4,7.2h5.9l-10.7-30.2C100.7,36.6,95,36.6,95,36.6z M92.6,55.5l4.7-13.8
			c1.6,4.6,3.1,9.2,4.6,13.8H92.6z"/>
		<polygon class="st4" points="128.1,66.8 132.9,66.8 132.9,34.8 128.2,35.1 		"/>
		<path class="st4" d="M157.4,42.3c-7,0-10.2,4.6-10.2,12.4c0,7.2,1.7,12.5,10,12.5c6.9,0,10.2-4.5,10.2-12.4
			C167.4,47.6,165.6,42.3,157.4,42.3z M157.3,63.3c-5.2,0-5.2-4.5-5.2-8.5s0.2-8.6,5.2-8.6c5.1,0,5.2,4.4,5.2,8.4
			C162.6,58.8,162.4,63.3,157.3,63.3z"/>
		<path class="st4" d="M181.3,42.3c-2.7,0-5,1-6.7,3l-0.3-2.8l-3.8,0.3v29.8h4.8V66c1.7,0.9,3.7,1.3,5.7,1.3c7.4,0,9.2-6.1,9.2-12.4
			C190,49,188.6,42.3,181.3,42.3z M179.6,63.4c-1.6,0-3.1-0.4-4.4-1.3v-9c0-3.5,1.3-6.6,5.1-6.6c3.9,0,4.8,3.3,4.8,8.4
			C185.1,58.8,184.6,63.4,179.6,63.4z"/>
		<path class="st4" d="M203.6,42.3c-2.4,0-4.6,0.8-6,2.4c0.1-3.3,0-6.6,0-9.9l-4.8,0.3v31.7h4.8V52.5c0-4.2,1.7-6.1,4.9-6.1
			c3.5,0,4.5,2.3,4.5,5.3v15.1h4.8V51.6C211.8,46.4,209.5,42.3,203.6,42.3z"/>
		<path class="st4" d="M227.2,42.3c-8.2,0-12.6,5.5-12.6,13.4c0,5.8,1.6,11.5,8.5,11.5c2.6,0,5.2-1,6.9-3l0.4,2.6h3.9v-24
			C231.9,42.6,229.6,42.3,227.2,42.3z M229.5,56.4c0,3.5-1.6,6.9-5.5,6.9c-4.2,0-4.4-4.1-4.4-7.3c0-5.2,1.8-9.6,7.7-9.6
			c0.8,0,1.5,0.1,2.3,0.2L229.5,56.4z"/>
		<path class="st4" d="M299.3,42.3c-8.2,0-12.6,5.5-12.6,13.4c0,5.8,1.6,11.5,8.5,11.5c2.6,0,5.2-1,6.9-3l0.4,2.6h3.9v-24
			C303.9,42.6,301.6,42.3,299.3,42.3z M301.5,56.4c0,3.5-1.6,6.9-5.5,6.9c-4.2,0-4.4-4.1-4.4-7.3c0-5.2,1.8-9.6,7.7-9.6
			c0.8,0,1.5,0.1,2.3,0.2L301.5,56.4z"/>
		<path class="st4" d="M276.7,42.3c-2.8,0-5.1,1.2-6.6,3.6c-1.2-2.5-3.5-3.6-6.2-3.6c-2.4,0-4.4,1-6,2.7l-0.3-2.5l-3.8,0.3v24h4.8
			v-14c0-3.1,0.8-6.3,4.3-6.3c2.8,0,3.7,2.1,3.7,5.3v15.1h4.8V53.3c0-3.2,0.5-6.7,4.3-6.7c2.8,0,3.7,2.3,3.7,5.3V67h4.8V51.9
			C284,46.9,282.4,42.3,276.7,42.3z"/>
		<path class="st4" d="M126.1,42.6c-0.8-0.2-1.6-0.3-2.5-0.3c-2.9,0-5.1,1.4-6.6,3.8l-0.4-3.6l-3.9,0.3v24h4.8V53.4
			c0-4,1.5-6.5,5.9-6.5c0.9,0,1.5,0.1,2.1,0.3L126.1,42.6z"/>
		<path class="st4" d="M251.6,42.6c-0.8-0.2-1.6-0.3-2.5-0.3c-2.9,0-5.1,1.4-6.6,3.8l-0.4-3.6l-3.9,0.3v24h4.8V53.4
			c0-4,1.5-6.5,5.9-6.5c0.9,0,1.5,0.1,2.2,0.3L251.6,42.6z"/>
	</g>
</g>
</svg>
